<svg xmlns="http://www.w3.org/2000/svg" width="32" height="32" fill="currentColor" fill-rule="evenodd" stroke-linejoin="round" stroke-miterlimit="1.414" aria-label="align-center" clip-rule="evenodd" preserveAspectRatio="xMidYMid meet" viewBox="0 0 32 32"><path fill-rule="evenodd" d="M7.5 11a1 1 0 0 1 1-1h16a1 1 0 0 1 0 2h-16a1 1 0 0 1-1-1zM7.5 16a1 1 0 0 1 1-1h16a1 1 0 0 1 0 2h-16a1 1 0 0 1-1-1zM10.5 21c0-.552.414-1 .923-1h10.154c.51 0 .923.448.923 1s-.413 1-.923 1H11.423c-.51 0-.923-.448-.923-1z" clip-rule="evenodd"/></svg>