<svg xmlns="http://www.w3.org/2000/svg" width="32" height="32" fill-rule="evenodd" clip-rule="evenodd" viewBox="0 0 32 32"><path d="M16 8.018a2 2 0 0 0-.194.078 9 9 0 0 0-.888.46 35 35 0 0 0-2.716 1.761 51 51 0 0 0-2.435 1.814c-.505.396-1.084.85-2.06 1.576a.999.999 0 1 1-1.414-1.414c2.208-1.793 2.606-2.092 4.755-3.61a38 38 0 0 1 2.878-1.864c.401-.229.78-.425 1.077-.555.262-.115.64-.264.997-.264.358 0 .735.149.997.264.297.13.676.326 1.077.555a38 38 0 0 1 2.878 1.864c2.15 1.518 2.548 1.817 4.755 3.61a1 1 0 1 1-1.414 1.414 92 92 0 0 1-2.06-1.576 51 51 0 0 0-2.435-1.814 35 35 0 0 0-2.716-1.761 9 9 0 0 0-.888-.46A2 2 0 0 0 16 8.018M7 24a1 1 0 0 1 1-1h16a1 1 0 0 1 0 2H8a1 1 0 0 1-1-1"/><path d="M16 22a1 1 0 0 1-1-1v-7a1 1 0 0 1 2 0v7a1 1 0 0 1-1 1M21 22a1 1 0 0 1-1-1v-7a1 1 0 0 1 2 0v7a1 1 0 0 1-1 1M11 22a1 1 0 0 1-1-1v-7a1 1 0 0 1 2 0v7a1 1 0 0 1-1 1"/><path d="M27.386 27.386C29.15 25.622 30 22.414 30 16c0-6.415-.85-9.622-2.614-11.386S22.414 2 16 2s-9.622.85-11.386 2.614S2 9.585 2 16s.85 9.622 2.614 11.386S9.586 30 16 30s9.622-.85 11.386-2.614M32 16c0 12.8-3.2 16-16 16S0 28.8 0 16 3.2 0 16 0s16 3.2 16 16"/></svg>