<svg xmlns="http://www.w3.org/2000/svg" width="32" height="32" viewBox="0 0 32 32"><path d="M10.5 18.9832C10.5 18.4309 10.0523 17.9832 9.5 17.9832C8.94771 17.9832 8.5 18.4309 8.5 18.9832C8.5 19.5355 8.94771 19.9832 9.5 19.9832C10.0523 19.9832 10.5 19.5355 10.5 18.9832Z"/><path d="M22.5 18.0169C23.0523 18.0169 23.5 18.4646 23.5 19.0169C23.5 19.5692 23.0523 20.0169 22.5 20.0169C21.9477 20.0169 21.5 19.5692 21.5 19.0169C21.5 18.4646 21.9477 18.0169 22.5 18.0169Z"/><path fill-rule="evenodd" d="M6.03119 16.0389C6.24408 7.81316 7.73357 7 16 7C24.2663 7 25.7558 7.81316 25.9687 16.0389C26.6124 16.5452 27 17.4115 27 19C27 21.007 26.3813 21.861 25.4093 22.293C24.4373 22.725 22.5158 23 18 23H14C9.48425 23 7.56275 22.725 6.59075 22.293C5.61875 21.861 5 21.007 5 19C5 17.4115 5.38761 16.5453 6.03119 16.0389ZM10.952 9.291C12.164 9.05 13.744 9 16 9C18.256 9 19.836 9.05 21.048 9.291C22.158 9.507 22.625 9.824 22.901 10.155C23.221 10.539 23.542 11.249 23.745 12.752C23.8455 13.4887 23.9084 14.332 23.9465 15.3124C22.7511 15.1147 20.9167 15 18 15H14C11.0833 15 9.24893 15.1147 8.05358 15.3124C8.09183 14.332 8.15491 13.4887 8.25596 12.752C8.45796 11.249 8.77896 10.539 9.09896 10.155C9.37496 9.824 9.84196 9.507 10.952 9.291ZM7.40303 20.4654C7.60832 20.5566 8.09068 20.7053 9.1758 20.8195C10.2418 20.9317 11.7721 21 14 21H18C20.2279 21 21.7582 20.9317 22.8242 20.8195C23.9093 20.7053 24.3917 20.5566 24.597 20.4654C24.7439 20.4001 24.7704 20.3599 24.804 20.2967C24.8689 20.1749 25 19.8233 25 19C25 18.1768 24.8689 17.8251 24.804 17.7033C24.7704 17.6402 24.7439 17.5999 24.597 17.5346C24.3917 17.4434 23.9093 17.2947 22.8242 17.1805C21.7582 17.0683 20.2279 17 18 17H14C11.7721 17 10.2418 17.0683 9.1758 17.1805C8.09068 17.2947 7.60832 17.4434 7.40303 17.5346C7.2561 17.5999 7.22963 17.6402 7.19598 17.7033C7.13108 17.8251 7 18.1768 7 19C7 19.8233 7.13108 20.1749 7.19598 20.2967C7.22963 20.3599 7.2561 20.4001 7.40303 20.4654Z" clip-rule="evenodd"/><path d="M9.58076 23.5975C9.87573 23.612 10.1115 23.8698 10.0033 24.1442C9.66507 25.0025 8.74275 25.5629 7.79241 25.3953C6.84109 25.2275 6.16703 24.3857 6.1428 23.4635C6.13489 23.1686 6.44466 23.007 6.72679 23.0943C7.64609 23.3803 8.61908 23.5518 9.58076 23.5975Z"/><path d="M22.1825 24.1442C22.0742 23.8698 22.31 23.612 22.605 23.5975C23.5666 23.5518 24.5396 23.3803 25.4589 23.0943C25.7411 23.007 26.0508 23.1686 26.0429 23.4635C26.0187 24.3857 25.3446 25.2275 24.3933 25.3953C23.443 25.5629 22.5207 25.0025 22.1825 24.1442Z"/></svg>