<svg xmlns="http://www.w3.org/2000/svg" width="32" height="32" fill="none"><path fill-rule="evenodd" d="M26 16c0 2.256-.05 3.836-.291 5.048-.216 1.11-.533 1.577-.864 1.853-.384.32-1.094.641-2.597.843-1.531.21-3.522.256-6.248.256-2.725 0-4.717-.046-6.248-.256-1.503-.202-2.213-.523-2.597-.843-.331-.276-.648-.743-.864-1.853C6.05 19.836 6 18.256 6 16c0-2.256.05-3.836.291-5.048.216-1.11.533-1.577.864-1.853.384-.32 1.094-.641 2.597-.844C11.283 8.046 13.275 8 16 8c2.726 0 4.717.046 6.248.255 1.503.203 2.213.524 2.597.844.331.276.648.743.864 1.853C25.95 12.164 26 13.744 26 16zm2 0c0 9.167-1 10-12 10S4 25.167 4 16 5 6 16 6s12 .833 12 10zm-9.469.456c.198-.215.469-.773.469-2.456a3 3 0 1 0-6 0c0 1.683.272 2.241.47 2.456.163.176.68.544 2.53.544 1.851 0 2.368-.368 2.531-.544zM21 14c0 1.873-.286 3.173-1.165 3.977a8.034 8.034 0 0 1 3.649 4.189c.124.328.153.708-.052.993-.568.789-1.673-.111-2.129-.97a6 6 0 0 0-10.605 0c-.456.859-1.561 1.759-2.13.97-.205-.285-.175-.665-.051-.993a8.025 8.025 0 0 1 3.649-4.189C11.287 17.173 11 15.873 11 14a5 5 0 0 1 10 0z" clip-rule="evenodd"/></svg>