<svg xmlns="http://www.w3.org/2000/svg" width="97" height="64" fill="none" viewBox="0 0 97 64"><g clip-path="url(#clip0_650_14)"><path fill-rule="evenodd" d="M10.7641 41.2579H38.3365V49.2076H10.7641V41.2579ZM96.9025 53.7359V10.2642C96.9025 10.2642 96.9025 0 86.6384 0H10.3616C10.3616 0 0.0974731 0 0.0974731 10.2642V53.6352C0.0974731 53.6352 0.0974731 63.8994 10.3616 63.8994H86.6384C86.6384 64 96.9025 64 96.9025 53.7359ZM27.9468 15.6585C27.9468 16.3659 28.3467 16.7561 29.6938 17.3415C32.2617 18.439 33.0405 19.4146 32.9984 21.5854C32.9984 24.1951 31.3356 26 28.9992 26C27.2943 26 26.0314 25.2195 25 23.439L26.4523 21.8049C26.9785 22.9512 27.8415 23.5854 28.915 23.5854C29.9253 23.5854 30.662 22.7805 30.662 21.6829C30.662 21.122 30.4305 20.6341 29.9885 20.2927C29.7569 20.1463 29.3149 19.9024 28.4309 19.5366C26.326 18.6585 25.5894 17.7073 25.5894 15.8537C25.5894 13.6585 27.168 12 29.2097 12C30.4936 12 31.6513 12.5122 32.6195 13.4878L31.4408 15.2683C30.8725 14.4878 30.3042 14.1707 29.6306 14.1707C28.6624 14.1707 27.9468 14.8049 27.9468 15.6585ZM14 13H17.8124C22.0375 13 24.9757 15.6709 25 19.5236C25 21.4382 24.1015 23.2818 22.5717 24.5109C21.2848 25.5273 19.8278 26 17.8124 26H14V13ZM17.3024 23.8255C19.0022 23.8255 20.0464 23.4945 20.872 22.7855C21.7704 22.0055 22.3046 20.7527 22.3046 19.5C22.3046 18.2473 21.7704 17.0418 20.872 16.2618C19.9978 15.5055 18.9779 15.2218 17.3024 15.2218H16.5982V23.8255H17.3024ZM35 19.0122C35 22.9565 37.6958 26 41.1557 26C42.1321 26 42.9811 25.7809 44 25.2209V22.153C43.0873 23.2 42.2807 23.6139 41.2618 23.6139C38.9693 23.6139 37.3349 21.7148 37.3349 18.9878C37.3349 16.407 39.0118 14.3861 41.1557 14.3861C42.2382 14.3861 43.066 14.8243 44 15.8957V12.8278C43.0024 12.2435 42.1745 12 41.1981 12C37.7807 12 35 15.1165 35 19.0122ZM62.4375 13L65.5 21.5284L68.5833 13H71L66.0625 26H64.8542L60 13H62.4375ZM81.8279 16.8291C81.8279 14.3945 80.0574 13 76.9651 13H73V26H75.6683V20.7764H76.0175L79.7082 26H83L78.6858 20.5164C80.7057 20.1145 81.8279 18.8145 81.8279 16.8291ZM76.4414 18.98H75.6683V15.0327H76.4913C78.1621 15.0327 79.0599 15.6945 79.0599 16.9709C79.0599 18.2709 78.1621 18.98 76.4414 18.98ZM60 19C60 22.866 56.866 26 53 26C49.134 26 46 22.866 46 19C46 15.134 49.134 12 53 12C56.866 12 60 15.134 60 19Z" clip-rule="evenodd"/></g><defs><clipPath id="clip0_650_14" fill="#fff"><rect width="97" height="64"/></clipPath></defs></svg>