<svg xmlns="http://www.w3.org/2000/svg" width="32" height="32" viewBox="0 0 32 32"><path fill-rule="evenodd" d="M10 8C10 4.68629 12.6863 2 16 2C19.3137 2 22 4.68629 22 8C22 9.78211 21.1322 11.6216 20.1945 13.1164C19.2379 14.6412 18.1115 15.9573 17.409 16.7235C16.6461 17.5556 15.3539 17.5556 14.591 16.7235C13.8885 15.9573 12.7621 14.6412 11.8055 13.1164C10.8678 11.6216 10 9.78211 10 8ZM16 4C13.7909 4 12 5.79086 12 8C12 9.20157 12.6144 10.6422 13.4998 12.0535C14.3383 13.3902 15.3371 14.572 16 15.3006C16.6629 14.572 17.6617 13.3902 18.5002 12.0535C19.3856 10.6422 20 9.20157 20 8C20 5.79086 18.2091 4 16 4ZM16 9C16.8285 9 17.5 8.32845 17.5 7.5C17.5 6.67155 16.8285 6 16 6C15.1715 6 14.5 6.67155 14.5 7.5C14.5 8.32845 15.1715 9 16 9ZM4 16C4 9.25733 4.54102 7.02349 9.20449 6.31354C9.07089 6.85368 9 7.41856 9 7.99999C9 8.12555 9.00365 8.25099 9.01072 8.3762C8.00255 8.57424 7.46946 8.83696 7.155 9.09901C6.824 9.37501 6.507 9.84201 6.291 10.952L6.28159 11H9.60824C9.97841 11.9702 10.4723 12.8728 10.9584 13.6478C11.2559 14.1219 11.5682 14.5756 11.8793 15H6.00412C6.0012 15.3179 6 15.6509 6 16C6 18.256 6.05 19.836 6.291 21.048C6.507 22.158 6.824 22.625 7.155 22.901C7.539 23.221 8.249 23.542 9.752 23.744C11.283 23.954 13.275 24 16 24C18.726 24 20.717 23.954 22.248 23.744C23.751 23.542 24.461 23.221 24.845 22.901C25.176 22.625 25.493 22.158 25.709 21.048C25.95 19.836 26 18.256 26 16C26 15.6509 25.9988 15.3179 25.9959 15H20.1207C20.4318 14.5756 20.7441 14.1219 21.0416 13.6478C21.5277 12.8728 22.0216 11.9702 22.3918 11H25.7184L25.709 10.952C25.493 9.84201 25.176 9.37501 24.845 9.09901C24.5305 8.83696 23.9974 8.57424 22.9893 8.3762C22.9963 8.25099 23 8.12555 23 7.99999C23 7.41856 22.9291 6.85368 22.7955 6.31354C27.459 7.02349 28 9.25733 28 16C28 25.167 27 26 16 26C5 26 4 25.167 4 16Z" clip-rule="evenodd"/></svg>