<svg xmlns="http://www.w3.org/2000/svg" xmlns:xlink="http://www.w3.org/1999/xlink" viewBox="0 0 96.2 63.6"><defs><path id="a" d="M0 0h96.2v63.6H0z"/></defs><clipPath id="b"><use xlink:href="#a" overflow="visible"/></clipPath><path d="M71.9 24.1h5.3l-1.8-9-3.5 9zm12.7 8h-5.8l-.7-3.4h-8l-1.3 3.4h-6.3L73 8.1h6.7l4.9 24zM63.5 8.7l-1 5.4s-2.3-1.4-4.9-1.6c-2.7-.2-4.9 2.1-3.4 3.5 1.6 1.5 8.4 3.7 8.4 8s-4.2 7.8-9.3 8.6c-5 .8-8.7-1.2-8.7-1.2l1.1-5s2.3 1.3 6.1 1.3c3.7 0 4.7-1.5 4.1-3.1-.6-1.6-3.4-2.2-5.2-3.5-3.4-2.5-3.8-5.2-3.3-7.4s2-5 6.9-5.9c5.1-.8 9.2.9 9.2.9m-18.8-.6l-3.8 24h-6.4L38.4 8l6.3.1zm-9 0c0 .7-9.5 24-9.7 24h-7c-1.7-6.5-3.4-12.9-5.1-19.4 0 0 2.6 1.9 2.8 2 1.6 1.2 3 2.9 4.1 4.6.7 1.1 1.5 2.3 1.9 3.5.3.7.5 2.2.5 2.2.2-.3 5.3-15.5 5.8-17h6.7zm-13.5 13C19.1 12.6 7.3 8.4 7 8.1h7c2.6 0 4.6 0 5.7 1.5 1.1 1.5 2.7 11.2 2.5 11.5M10.6 41H38v7.9H10.6V41zm85.6 12.4V10.2S96.2 0 86 0H10.2S0 0 0 10.2v43.1s0 10.2 10.2 10.2H86c0 .1 10.2.1 10.2-10.1" clip-path="url(#b)"/></svg>