<svg xmlns="http://www.w3.org/2000/svg" xmlns:xlink="http://www.w3.org/1999/xlink" viewBox="0 0 96.2 63.6"><defs><path id="a" d="M0 0h96.2v63.6H0z"/></defs><clipPath id="b"><use xlink:href="#a" overflow="visible"/></clipPath><path d="M22.4 21.5h-3.6l1.8-6.3 1.8 6.3zM46 28.2h4.8V10.6h-7.6l-2.9 10.7-2.9-10.7h-7.6V28l-6.2-17.4H18l-6.2 17.5H17l.8-2.9h5.8l.8 2.9h10.1V14.8L38 28.2h4.3L46 14.8v13.4zM69.2 19l-3.7 5.2h-7.3v-3.5h7.2v-3.6h-7.2v-2.8h7.7l3.3 4.7zm7.6.1l5.9-8.5h-6.4L73.1 16l-3.4-5.4H53.6v17.5h15.6l3.8-5.6 3.8 5.6h6.6l-6.6-9zM90.1 7.2L81 19.5l8.2 12.1H75.6L73 27.7l-2.4 3.9H44.2v-3.3L43 31.6h-5.7l-1.2-3.3v3.3H23l-1.1-3.9h-2.7l-1.1 3.9h-12l9.4-24.4h9.9l1.3 2.7V7.2h11.9l1.7 5.9 1.5-5.9h28.7c.2 0 2.5 3.9 2.5 3.9l2.2-3.9h14.9zM10.6 41H38v7.9H10.6V41zm85.6 12.4V10.2S96.2 0 86 0H10.2S0 0 0 10.2v43.1s0 10.2 10.2 10.2H86c0 .1 10.2.1 10.2-10.1" clip-path="url(#b)"/></svg>