<svg xmlns="http://www.w3.org/2000/svg" width="32" height="32" fill="none" viewBox="0 0 32 32"><path fill-rule="evenodd" d="M25.709 21.048C25.95 19.836 26 18.256 26 16C26 13.744 25.95 12.164 25.709 10.952C25.493 9.842 25.176 9.375 24.845 9.099C24.461 8.779 23.751 8.458 22.248 8.255C20.717 8.046 18.726 8 16 8C13.275 8 11.283 8.046 9.752 8.255C8.249 8.458 7.539 8.779 7.155 9.099C6.824 9.375 6.507 9.842 6.291 10.952C6.05 12.164 6 13.744 6 16C6 18.256 6.05 19.836 6.291 21.048C6.507 22.158 6.824 22.625 7.155 22.901C7.539 23.221 8.249 23.542 9.752 23.744C11.283 23.954 13.275 24 16 24C18.726 24 20.717 23.954 22.248 23.744C23.751 23.542 24.461 23.221 24.845 22.901C25.176 22.625 25.493 22.158 25.709 21.048ZM16 26C27 26 28 25.167 28 16C28 6.833 27 6 16 6C5 6 4 6.833 4 16C4 25.167 5 26 16 26Z" clip-rule="evenodd"/><path stroke-width=".3" d="M17.3949 12.8049L17.3949 12.8049C17.3743 12.7869 17.3545 12.7691 17.3359 12.7524L17.3355 12.7521L17.4357 12.6404L17.3355 12.7521C17.2563 12.681 17.1966 12.6283 17.1204 12.5878C17.0472 12.5487 16.9517 12.5176 16.8035 12.5076C16.4985 12.4869 15.99 12.5561 15.0453 12.8093C14.5423 12.944 14.1423 13.0513 13.8272 13.1561C13.5103 13.2614 13.295 13.3595 13.1535 13.4693C13.0193 13.5736 12.9519 13.6879 12.9297 13.8403C12.906 14.0028 12.9324 14.2178 13.0137 14.5212C13.0956 14.8268 13.1753 15.0288 13.272 15.1602C13.3618 15.2825 13.469 15.3475 13.629 15.3713C13.7998 15.3968 14.0314 15.3751 14.3632 15.3067C14.6926 15.2388 15.1038 15.1287 15.6291 14.9879C16.425 14.7747 17.0702 14.6349 17.5983 14.5779C18.1256 14.521 18.5484 14.5452 18.893 14.6706C19.5989 14.9274 19.9122 15.5823 20.1769 16.5703C20.4254 17.4979 20.3998 18.2032 19.9756 18.7652C19.5783 19.2917 18.8525 19.6603 17.7876 19.9957L17.9181 20.4826C18.0308 20.9033 17.781 21.3361 17.3603 21.4488C16.9396 21.5615 16.5068 21.3116 16.3941 20.891L16.2636 20.4039C15.4247 20.5883 14.7076 20.6472 14.1188 20.4995C13.4845 20.3404 13.0138 19.9454 12.7019 19.2582C12.7019 19.2581 12.7019 19.2581 12.7018 19.2581L12.8384 19.1961C12.6922 18.8748 12.9031 18.5193 13.2438 18.428C13.5844 18.3367 13.8912 18.5608 14.0717 18.8643L17.3949 12.8049ZM17.3949 12.8049C17.5294 12.922 17.6885 13.0509 17.8632 13.1374C18.0397 13.2248 18.2439 13.2748 18.4609 13.2162C18.8704 13.1064 19.1606 12.662 18.9537 12.2408M17.3949 12.8049L14.2006 18.7876C14.2506 18.8715 14.31 18.9301 14.3925 18.9702C14.4781 19.0119 14.5995 19.0388 14.7808 19.0393C15.148 19.0402 15.7148 18.9334 16.6212 18.6906C17.2365 18.5257 17.6871 18.3843 18.0138 18.2515C18.343 18.1177 18.532 17.9982 18.638 17.8846C18.7363 17.7792 18.7689 17.673 18.7657 17.5376C18.7622 17.3902 18.7167 17.2169 18.6532 16.9799L18.6526 16.9774C18.5891 16.7404 18.5418 16.5676 18.4711 16.4382C18.4062 16.3194 18.3248 16.2437 18.187 16.2016C18.0384 16.1562 17.815 16.1472 17.4631 16.1959C17.1136 16.2442 16.6528 16.3471 16.0375 16.5119C15.2405 16.7255 14.5925 16.8577 14.0608 16.9049C13.5296 16.952 13.1042 16.9154 12.7584 16.782C12.0522 16.5095 11.7388 15.8592 11.4897 14.9295C11.2555 14.0557 11.2846 13.3574 11.7028 12.7858C12.0962 12.2482 12.8136 11.8528 13.8798 11.5076L13.7484 11.0172C13.6357 10.5965 13.8856 10.1638 14.3063 10.051C14.7269 9.93832 15.1597 10.1882 15.2724 10.6089L15.4018 11.0917C16.2795 10.8746 17.0079 10.8623 17.5942 11.0459C18.2183 11.2413 18.666 11.6541 18.9537 12.2408M18.9537 12.2408L18.819 12.3069L18.9537 12.2407C18.9537 12.2408 18.9537 12.2408 18.9537 12.2408Z"/></svg>