<svg xmlns="http://www.w3.org/2000/svg" width="32" height="32" fill="none" viewBox="0 0 32 32"><path fill="currentColor" d="M22.1761 9.65594L14.2604 17.572L10.8239 14.1352C9.94821 13.2618 8.53052 13.2595 7.65482 14.1352C6.78136 15.0087 6.78135 16.4286 7.65705 17.3021L10.8217 20.4689L9.51148 19.1565L12.6452 22.2924C12.6552 22.3028 12.6653 22.3131 12.6755 22.3233C13.1135 22.7613 13.6869 22.9796 14.2604 22.9793C14.8338 22.9796 15.4073 22.7613 15.8452 22.3233C15.8554 22.3131 15.8655 22.3028 15.8755 22.2924L25.3429 12.8228C26.2186 11.9493 26.2186 10.5294 25.3452 9.65594C24.4695 8.78024 23.0518 8.78247 22.1761 9.65594Z"/></svg>