<svg xmlns="http://www.w3.org/2000/svg" width="32" height="32" fill="currentColor" viewBox="0 0 32 32"><path fill-rule="evenodd" d="M22.0777 10.0474H9.92225C8.00387 10.0474 6.76387 10.0515 5.84912 10.1731C4.99052 10.2872 4.71964 10.4719 4.56864 10.6201C4.55979 10.6288 4.55102 10.6375 4.54233 10.6464C4.39411 10.7974 4.2095 11.0683 4.09537 11.9269C3.97379 12.8416 3.96964 14.0816 3.96964 16C3.96964 17.9184 3.97379 19.1584 4.09537 20.0731C4.2095 20.9317 4.39411 21.2026 4.54233 21.3536C4.55102 21.3625 4.55979 21.3712 4.56864 21.3799C4.71964 21.5281 4.99052 21.7128 5.84913 21.8269C6.76387 21.9485 8.00387 21.9526 9.92226 21.9526H22.0777C23.9961 21.9526 25.2361 21.9485 26.1508 21.8269C27.0095 21.7128 27.2803 21.5281 27.4313 21.3799C27.4378 21.3735 27.4443 21.3671 27.4507 21.3606C27.4531 21.3583 27.4554 21.3559 27.4576 21.3536C27.6059 21.2026 27.7905 20.9317 27.9046 20.0731C28.0262 19.1584 28.0303 17.9184 28.0303 16C28.0303 14.0816 28.0262 12.8416 27.9046 11.9269C27.7905 11.0683 27.6059 10.7974 27.4576 10.6464C27.449 10.6375 27.4402 10.6288 27.4313 10.6201C27.2803 10.4719 27.0095 10.2872 26.1508 10.1731C25.2361 10.0515 23.9961 10.0474 22.0777 10.0474ZM3.11502 9.2454C1.96964 10.4123 1.96964 12.2749 1.96964 16C1.96964 19.7251 1.96964 21.5877 3.11502 22.7546C3.1324 22.7723 3.14994 22.7899 3.16764 22.8072C4.33454 23.9526 6.19711 23.9526 9.92226 23.9526H22.0777C25.8029 23.9526 27.6654 23.9526 28.8323 22.8072C28.85 22.7899 28.8676 22.7723 28.885 22.7546C30.0303 21.5877 30.0303 19.7251 30.0303 16C30.0303 12.2749 30.0303 10.4123 28.885 9.2454C28.8676 9.22769 28.85 9.21015 28.8323 9.19277C27.6654 8.04739 25.8029 8.04739 22.0777 8.04739H9.92225C6.19711 8.04739 4.33454 8.04739 3.16764 9.19277C3.14994 9.21015 3.1324 9.22769 3.11502 9.2454Z" clip-rule="evenodd"/><path fill-rule="evenodd" d="M6 18.5C6 17.948 6.448 17.5 7 17.5H18C18.552 17.5 19 17.948 19 18.5C19 19.052 18.552 19.5 18 19.5H7C6.448 19.5 6 19.052 6 18.5Z" clip-rule="evenodd"/><path fill-rule="evenodd" d="M6 13.5C6 12.948 6.448 12.5 7 12.5H11C11.552 12.5 12 12.948 12 13.5C12 14.052 11.552 14.5 11 14.5H7C6.448 14.5 6 14.052 6 13.5Z" clip-rule="evenodd"/><path fill-rule="evenodd" d="M20 13.5C20 12.948 20.448 12.5 21 12.5H25C25.552 12.5 26 12.948 26 13.5C26 14.052 25.552 14.5 25 14.5H21C20.448 14.5 20 14.052 20 13.5Z" clip-rule="evenodd"/><path fill-rule="evenodd" d="M21.7725 18.4283C21.7725 17.8763 22.2205 17.4283 22.7725 17.4283H24.7725C25.3245 17.4283 25.7725 17.8763 25.7725 18.4283C25.7725 18.9803 25.3245 19.4283 24.7725 19.4283H22.7725C22.2205 19.4283 21.7725 18.9803 21.7725 18.4283Z" clip-rule="evenodd"/></svg>