<svg xmlns="http://www.w3.org/2000/svg" width="41" height="41" fill="none" viewBox="0 0 41 41"><path fill="currentColor" fill-rule="evenodd" d="M27.9521 7.22206C25.979 4.51892 22.2093 4.11401 15.0652 4.11401C1.31469 4.11401 0.0651855 5.61401 0.0651855 22.114C0.0651855 38.614 1.31469 40.114 15.0652 40.114C28.8157 40.114 30.0652 38.614 30.0652 22.114C30.0652 20.5755 30.0543 19.1674 30.0235 17.8788L27.0626 20.8398C27.0644 21.2523 27.0652 21.6768 27.0652 22.114C27.0652 26.2015 26.9962 29.1895 26.6812 31.486C26.3782 33.7405 25.8967 34.8055 25.4167 35.3815C25.0027 35.878 24.3022 36.3535 22.6372 36.6775C20.8192 37.039 18.4492 37.114 15.0652 37.114C11.6812 37.114 9.31118 37.039 7.49319 36.6775C5.82819 36.3535 5.12769 35.878 4.71369 35.3815C4.23369 34.8055 3.75219 33.7405 3.44769 31.486C3.13419 29.1895 3.06519 26.2015 3.06519 22.114C3.06519 18.025 3.13419 15.0385 3.44769 12.742C3.75219 10.4875 4.23369 9.42251 4.71369 8.84651C5.12769 8.35001 5.82819 7.87451 7.49319 7.55051C9.31118 7.18901 11.6812 7.11401 15.0652 7.11401C18.4492 7.11401 20.8192 7.18901 22.6372 7.55051C24.3022 7.87451 25.0027 8.35001 25.4167 8.84651C25.539 8.99324 25.6613 9.1717 25.7808 9.39346L27.9521 7.22206ZM10.6108 13.114H6.81519C6.41736 13.114 6.03583 13.272 5.75453 13.5534C5.47322 13.8347 5.31519 14.2162 5.31519 14.614C5.31519 15.0118 5.47322 15.3934 5.75453 15.6747C6.03583 15.956 6.41736 16.114 6.81519 16.114H12.3421L11.8833 15.6551C11.168 14.9399 10.7438 14.0438 10.6108 13.114ZM16.8423 20.614H6.81519C6.41736 20.614 6.03583 20.772 5.75453 21.0534C5.47322 21.3347 5.31519 21.7162 5.31519 22.114C5.31519 22.5118 5.47322 22.8934 5.75453 23.1747C6.03583 23.456 6.41736 23.614 6.81519 23.614H20.5251C19.8607 23.3869 19.2367 23.0083 18.7067 22.4784L16.8423 20.614ZM5.75453 28.5534C5.47322 28.8347 5.31519 29.2162 5.31519 29.614C5.31519 30.0118 5.47322 30.3934 5.75453 30.6747C6.03583 30.956 6.41736 31.114 6.81519 31.114H18.8152C19.213 31.114 19.5945 30.956 19.8758 30.6747C20.1572 30.3934 20.3152 30.0118 20.3152 29.614C20.3152 29.2162 20.1572 28.8347 19.8758 28.5534C19.5945 28.272 19.213 28.114 18.8152 28.114H6.81519C6.41736 28.114 6.03583 28.272 5.75453 28.5534Z" clip-rule="evenodd"/><path fill="#33D6A6" fill-rule="evenodd" d="M40.1258 1.41198C40.7116 1.99775 40.7116 2.9475 40.1259 3.5333L23.3028 20.357C22.6194 21.0404 21.5114 21.0404 20.828 20.357L14.0045 13.5338C13.4187 12.948 13.4187 11.9983 14.0045 11.4125C14.5903 10.8267 15.54 10.8267 16.1258 11.4124L22.0654 17.3518L38.0045 1.41202C38.5903 0.826219 39.54 0.8262 40.1258 1.41198Z" clip-rule="evenodd"/></svg>