<svg xmlns="http://www.w3.org/2000/svg" width="35" height="41" fill="none" viewBox="0 0 35 41"><path fill="currentColor" fill-rule="evenodd" d="M2.6602 9.74124C2.2535 12.2776 2.16187 15.6458 2.16187 20.114C2.16187 36.614 3.41137 38.114 17.1619 38.114C20.8854 38.114 23.6922 38.004 25.8058 37.516L23.592 34.8594C21.943 35.0656 19.8794 35.114 17.1619 35.114C13.7779 35.114 11.4079 35.039 9.58986 34.6775C7.92486 34.3535 7.22437 33.878 6.81037 33.3815C6.33037 32.8055 5.84887 31.7405 5.54437 29.486C5.23087 27.1895 5.16187 24.2015 5.16187 20.114C5.16187 17.2199 5.19643 14.8781 5.32779 12.9423L2.6602 9.74124ZM18.0196 14.114L15.5196 11.114H25.4119C25.8097 11.114 26.1912 11.272 26.4725 11.5534C26.7538 11.8347 26.9119 12.2162 26.9119 12.614C26.9119 13.0118 26.7538 13.3934 26.4725 13.6747C26.1912 13.956 25.8097 14.114 25.4119 14.114H18.0196ZM10.0542 18.614H8.91187C8.51404 18.614 8.13251 18.772 7.85121 19.0534C7.5699 19.3347 7.41187 19.7162 7.41187 20.114C7.41187 20.5118 7.5699 20.8934 7.85121 21.1747C8.13251 21.456 8.51404 21.614 8.91187 21.614H12.5542L10.0542 18.614ZM24.2696 21.614L21.7696 18.614H25.4119C25.8097 18.614 26.1912 18.772 26.4725 19.0534C26.7538 19.3347 26.9119 19.7162 26.9119 20.114C26.9119 20.5118 26.7538 20.8934 26.4725 21.1747C26.1912 21.456 25.8097 21.614 25.4119 21.614H24.2696ZM28.9954 27.2851C29.1273 25.349 29.1619 23.0069 29.1619 20.114C29.1619 16.025 29.0929 13.0385 28.7779 10.742C28.4749 8.48751 27.9934 7.42251 27.5134 6.84651C27.0994 6.35001 26.3989 5.87451 24.7339 5.55051C22.9159 5.18901 20.5459 5.11401 17.1619 5.11401C14.4443 5.11401 12.3807 5.16238 10.7317 5.36865L8.51792 2.71205C10.6315 2.22401 13.4383 2.11401 17.1619 2.11401C30.9124 2.11401 32.1619 3.61401 32.1619 20.114C32.1619 24.5822 32.0702 27.9505 31.6635 30.4868L28.9954 27.2851ZM16.3042 26.114H8.91187C8.51404 26.114 8.13251 26.272 7.85121 26.5534C7.5699 26.8347 7.41187 27.2162 7.41187 27.614C7.41187 28.0118 7.5699 28.3934 7.85121 28.6747C8.13251 28.956 8.51404 29.114 8.91187 29.114H18.8042L16.3042 26.114Z" clip-rule="evenodd"/><path fill="#EC3750" fill-rule="evenodd" d="M1.20167 0.961741C1.83809 0.431395 2.78393 0.517381 3.31428 1.1538L33.3143 37.1538C33.8446 37.7902 33.7586 38.7361 33.1222 39.2664C32.4858 39.7968 31.54 39.7108 31.0096 39.0744L1.00962 3.07435C0.479271 2.43793 0.565257 1.49209 1.20167 0.961741Z" clip-rule="evenodd"/></svg>