<?xml version="1.0" encoding="UTF-8"?>
<svg id="Layer_1" data-name="Layer 1" fill="#000" xmlns="http://www.w3.org/2000/svg" width="25.72" height="24.78" viewBox="0 0 25.72 24.78">
  <g>
    <circle class="cls-1" cx="6.5" cy="10.5" r="1.5"/>
    <circle class="cls-1" cx="17.5" cy="10.5" r="1.5"/>
    <path class="cls-1" d="M15.35,21.41c-1.05.37-2.17.59-3.35.59-5.52,0-10-4.48-10-10S6.48,2,12,2s10,4.48,10,10c0,.74-.09,1.46-.24,2.15.67.16,1.3.44,1.85.82.24-.95.39-1.94.39-2.97C24,5.37,18.63,0,12,0S0,5.37,0,12s5.37,12,12,12c1.55,0,3.04-.31,4.4-.84-.45-.51-.81-1.1-1.05-1.74Z"/>
    <path class="cls-1" d="M17,14.5c.23-1.14-3-1.5-5-1.5s-5.26.23-5,1.5c.47,2.28,2.55,4,5,4,1.4,0,2.67-.57,3.59-1.48.26-.52.6-1,1.01-1.41.17-.35.31-.72.39-1.11ZM10,16.5s.9-1,2-1,2,1,2,1c0,0-.9.5-2,.5s-2-.5-2-.5Z"/>
  </g>
  <path class="cls-2" d="M19.43,15.89c0-.34.13-.66.37-.9.24-.24.56-.37.9-.37s.66.13.9.37c.24.24.37.56.37.9v2.54h2.54c.33.01.64.15.86.39.23.24.35.55.35.88s-.13.64-.35.88c-.23.24-.53.38-.86.39h-2.54v2.54c0,.34-.13.66-.37.9-.24.24-.56.37-.9.37s-.66-.13-.9-.37c-.24-.24-.37-.56-.37-.9v-2.54h-2.54c-.34,0-.66-.13-.9-.37-.24-.24-.37-.56-.37-.9s.13-.66.37-.9c.24-.24.56-.37.9-.37h2.54v-2.54Z"/>
</svg>