<svg xmlns="http://www.w3.org/2000/svg" width="32" height="32" fill="currentColor" fill-rule="evenodd" stroke-linejoin="round" stroke-miterlimit="1.414" aria-label="figma-fill" clip-rule="evenodd" preserveAspectRatio="xMidYMid meet" viewBox="0 0 32 32"><g><path d="M16.774 14.114c-.5.5-.78 1.179-.78 1.886v-2.667h2.666c-.707 0-1.386.281-1.886.781z"/><path fill-rule="evenodd" d="M27.986 15.968c0 11-1 12-12 12s-12-1-12-12 1-12 12-12 12 1 12 12zm-9.326-2.635A2.667 2.667 0 1115.993 16v5.333a2.667 2.667 0 11-2.666-2.666 2.667 2.667 0 010-5.334 2.666 2.666 0 110-5.333h5.333a2.667 2.667 0 110 5.333z" clip-rule="evenodd"/></g></svg>