<svg width="32" height="32" viewBox="0 0 32 32" fill="none" xmlns="http://www.w3.org/2000/svg">
<path d="M18.1364 4.96453V4.96302C18.4643 8.56632 20.3467 10.4413 22.1446 12.2301C23.9334 14.0098 25.6376 15.7065 25.6376 18.9351C25.6376 24.223 21.1052 28 15.8173 28C10.5294 28 6 24.2411 6 18.9351C6 16.974 6.8098 15.0674 8.15292 13.9705C8.72099 13.5052 9.45525 13.9705 9.71662 14.6564C10.472 16.6492 12.1657 16.5465 12.7987 15.9134C13.2247 15.4874 13.3139 14.6882 12.7942 13.6472C10.2907 8.64186 14.3624 4.96 16.9837 4.04746C17.5729 3.84048 18.0805 4.34056 18.1364 4.96453ZM15.8173 25.7338C20.096 25.7338 23.3714 22.7423 23.3714 18.9351C23.3714 16.7248 22.3441 15.6264 20.5326 13.824L20.4782 13.7681C18.9477 12.2452 17.0033 10.3083 16.1965 7.0691C15.71 7.45587 15.2447 7.94387 14.8912 8.50891C14.2385 9.56044 13.953 10.896 14.8217 12.6335C15.5363 14.0642 15.8339 16.0842 14.4017 17.5164C13.4801 18.438 12.0675 18.7855 10.7712 18.4728C9.92943 18.2661 9.17186 17.805 8.60163 17.1523C8.37828 17.7201 8.26447 18.325 8.26623 18.9351C8.26623 22.7575 11.5356 25.7338 15.8173 25.7338Z" fill="currentColor"/>
</svg>
