<svg xmlns="http://www.w3.org/2000/svg" width="32" height="32" fill="none" viewBox="0 0 32 32"><path d="M16 15.125C16.8285 15.125 17.5 14.4535 17.5 13.625C17.5 12.7965 16.8285 12.125 16 12.125C15.1715 12.125 14.5 12.7965 14.5 13.625C14.5 14.4535 15.1715 15.125 16 15.125Z"/><path fill-rule="evenodd" d="M16 8.125C12.6863 8.125 10 10.8113 10 14.125C10 15.9071 10.8678 17.7466 11.8055 19.2414C12.7621 20.7662 13.8885 22.0823 14.591 22.8485C15.3539 23.6806 16.6461 23.6806 17.409 22.8485C18.1115 22.0823 19.2379 20.7662 20.1945 19.2414C21.1322 17.7466 22 15.9071 22 14.125C22 10.8113 19.3137 8.125 16 8.125ZM12 14.125C12 11.9159 13.7909 10.125 16 10.125C18.2091 10.125 20 11.9159 20 14.125C20 15.3266 19.3856 16.7672 18.5002 18.1785C17.6617 19.5152 16.6629 20.697 16 21.4256C15.3371 20.697 14.3383 19.5152 13.4998 18.1785C12.6144 16.7672 12 15.3266 12 14.125Z" clip-rule="evenodd"/><path fill-rule="evenodd" d="M28 16C28 6 26 4 16 4C6 4 4 6 4 16C4 26 6 28 16 28C26 28 28 26 28 16ZM16 6C21.1 6 23.247 6.576 24.336 7.665C25.425 8.754 26 10.9 26 16C26 21.1 25.425 23.247 24.336 24.336C23.247 25.425 21.1 26 16 26C10.9 26 8.753 25.425 7.664 24.336C6.575 23.247 6 21.1 6 16C6 10.9 6.575 8.753 7.664 7.665C8.753 6.576 10.9 6 16 6Z" clip-rule="evenodd"/></svg>