<svg xmlns="http://www.w3.org/2000/svg" width="32" height="32" viewBox="0 0 32 32" fill="currentcolor"><path fill-rule="evenodd" d="M23.116 22.885h-.001c-7.732 0-14-6.268-14-14v-.001a9.952 9.952 0 0 0-2 6.001c0 5.523 4.477 10 10 10 2.251 0 4.329-.743 6.001-2zm2.422-2.245c.903-.185 1.721.724 1.166 1.46a11.982 11.982 0 0 1-9.59 4.785c-6.627 0-12-5.373-12-12 0-3.92 1.88-7.4 4.786-9.59.736-.554 1.645.264 1.46 1.167-.16.783-.245 1.593-.245 2.423 0 6.627 5.373 12 12 12 .83 0 1.64-.084 2.423-.245z" clip-rule="evenodd"/></svg>
