<svg xmlns="http://www.w3.org/2000/svg" width="32" height="32" viewBox="0 0 32 32" fill="currentColor"><path fill-rule="evenodd" d="M11 7C10.7348 7 10.4804 7.10536 10.2929 7.29289C10.1054 7.48043 10 7.73478 10 8V9.019C6.275 9.168 5 10.234 5 13C5 16 5.857 17 11 17C15 17 15 17.5 15 18.998V19.002C15 20.5 15 21 11 21C8.065 21 7.283 20.731 7.075 19.995C6.925 19.463 6.552 19 6 19C5.448 19 4.985 19.452 5.076 19.997C5.441 22.2 7.128 22.889 10 22.985V24C10 24.2652 10.1054 24.5196 10.2929 24.7071C10.4804 24.8946 10.7348 25 11 25C11.2652 25 11.5196 24.8946 11.7071 24.7071C11.8946 24.5196 12 24.2652 12 24V22.985C15.725 22.86 17 21.95 17 19C17 18.187 16.945 17.53 16.778 17H23.586L21.293 19.293C21.1055 19.4805 21.0002 19.7348 21.0002 20C21.0002 20.2652 21.1055 20.5195 21.293 20.707C21.4805 20.8945 21.7348 20.9998 22 20.9998C22.2652 20.9998 22.5195 20.8945 22.707 20.707L26.707 16.707C26.7999 16.6142 26.8737 16.504 26.924 16.3827C26.9743 16.2614 27.0002 16.1313 27.0002 16C27.0002 15.8687 26.9743 15.7386 26.924 15.6173C26.8737 15.496 26.7999 15.3858 26.707 15.293L22.707 11.293C22.6142 11.2002 22.5039 11.1265 22.3826 11.0763C22.2613 11.026 22.1313 11.0002 22 11.0002C21.7348 11.0002 21.4805 11.1055 21.293 11.293C21.2002 11.3858 21.1265 11.4961 21.0763 11.6174C21.026 11.7387 21.0002 11.8687 21.0002 12C21.0002 12.2652 21.1055 12.5195 21.293 12.707L23.586 15H11C7.606 15 7 15 7 13C7 11 7.75 11 11 11C14.064 11 14.326 11.4 14.682 11.948L14.749 12.049C15.057 12.507 15.447 13 15.999 12.999C16.551 12.999 17.016 12.546 16.909 12.004C16.537 10.111 15.006 9.015 12 9.015V8C12 7.73478 11.8946 7.48043 11.7071 7.29289C11.5196 7.10536 11.2652 7 11 7Z" clip-rule="evenodd"/></svg>