<svg xmlns="http://www.w3.org/2000/svg" width="32" height="32" viewBox="0 0 32 32"><path d="M23.7529 7.18644C24.0458 6.89354 24.5207 6.89354 24.8136 7.18644C25.1064 7.47933 25.1064 7.9542 24.8136 8.2471L8.24711 24.8135C7.95421 25.1064 7.47934 25.1064 7.18645 24.8135C6.89355 24.5207 6.89355 24.0458 7.18645 23.7529L23.7529 7.18644Z"/><path d="M14.562 10.409L17.2404 12.2847L11.7866 17.7385L9.911 15.06L9.407 15.564C9.017 15.954 8.383 15.954 7.993 15.564C7.602 15.173 7.602 14.54 7.993 14.15L13.65 8.493C14.04 8.102 14.673 8.102 15.064 8.493C15.454 8.883 15.454 9.517 15.064 9.907L14.562 10.409Z"/><path d="M14.497 21.609L13.8252 20.6497L20.1514 14.3234L21.216 15.069L21.428 14.857C21.818 14.466 22.452 14.466 22.842 14.857C23.233 15.247 23.233 15.881 22.842 16.271L15.771 23.342C15.381 23.733 14.747 23.733 14.357 23.342C13.966 22.952 13.966 22.318 14.357 21.928L14.576 21.709C14.548 21.678 14.521 21.644 14.497 21.609Z"/><path d="M20.721 19.807L19.307 21.221L22.843 24.757C23.233 25.147 23.866 25.147 24.257 24.757C24.647 24.366 24.647 23.733 24.257 23.342L20.721 19.807Z"/></svg>