<svg width="32" height="32" viewBox="0 0 32 32" fill="none" xmlns="http://www.w3.org/2000/svg">
<path d="M25 11.5C26.1046 11.5 27 12.3945 27 13.499V18.5C27 25 26.0833 26.5 16 26.5C15.2887 26.5 14.623 26.4927 14 26.4766C5.7919 26.2637 5 24.5414 5 18.5V13.499C5 12.3945 5.89543 11.5 7 11.5H25ZM20.1914 16.293C19.8004 15.902 19.1674 15.903 18.7764 16.293L15.3623 19.707L15.2412 19.8271L13.707 18.293C13.316 17.9031 12.683 17.902 12.292 18.293C11.9023 18.6829 11.9022 19.3171 12.293 19.707L13.7061 21.1211L13.1211 20.5352L14.5342 21.9492L14.6104 22.0176C14.8724 22.2312 15.2171 22.2927 15.5264 22.2012C15.6502 22.1646 15.7681 22.1031 15.873 22.0176L15.9492 21.9492L17.3623 20.5352L18.7773 19.1211L20.1904 17.707C20.5813 17.3171 20.5812 16.683 20.1914 16.293Z" fill="currentColor"/>
<path d="M16 5.5C18.7614 5.5 21 7.7386 21 10.5V12.5C21 13.0523 20.5523 13.5 20 13.5C19.4477 13.5 19 13.0523 19 12.5V10.5C19 8.8431 17.6568 7.5 16 7.5C14.3432 7.50002 13 8.84311 13 10.5V12.5C13 13.0523 12.5523 13.5 12 13.5C11.4477 13.5 11 13.0523 11 12.5V10.5C11 7.73861 13.2386 5.50002 16 5.5Z" fill="currentColor"/>
</svg>
