<svg fill-rule="evenodd" clip-rule="evenodd" stroke-linejoin="round" stroke-miterlimit="1.414" xmlns="http://www.w3.org/2000/svg" aria-label="project-settings" viewBox="0 0 32 32" preserveAspectRatio="xMidYMid meet" fill="currentColor" width="32" height="32"><g><path d="M5.19984 26.376C5.19984 26.0578 5.32627 25.7525 5.55131 25.5275C5.77636 25.3025 6.08159 25.176 6.39985 25.176H25.6001C25.9184 25.176 26.2236 25.3025 26.4487 25.5275C26.6737 25.7525 26.8002 26.0578 26.8002 26.376C26.8002 26.6943 26.6737 26.9995 26.4487 27.2246C26.2236 27.4496 25.9184 27.5761 25.6001 27.5761H6.39985C6.08159 27.5761 5.77636 27.4496 5.55131 27.2246C5.32627 26.9995 5.19984 26.6943 5.19984 26.376Z"/><path fill-rule="evenodd" clip-rule="evenodd" d="M13.5077 13.2715C13.3784 13.3497 13.2225 13.3745 13.0781 13.3303L12.0007 13.0003C11.828 12.9474 11.639 12.9907 11.5143 13.1213C11.2626 13.385 11.0341 13.6711 10.8318 13.9761C10.7318 14.1268 10.7315 14.3211 10.8216 14.478L11.3827 15.4551C11.4578 15.5859 11.4684 15.7432 11.4211 15.8864C11.327 16.1715 11.2588 16.4683 11.2192 16.7739C11.1997 16.9235 11.122 17.0606 10.9975 17.1458L10.067 17.7832C9.91804 17.8852 9.83405 18.0599 9.85834 18.2389C9.90811 18.6056 9.98988 18.9621 10.1006 19.3054C10.1561 19.4776 10.3078 19.5989 10.4866 19.6262L11.6025 19.7966C11.7516 19.8194 11.8811 19.9091 11.9637 20.0354C12.1304 20.2904 12.3207 20.5284 12.5314 20.7466C12.6362 20.855 12.6948 21.0012 12.6838 21.1516L12.6018 22.2774C12.5887 22.4575 12.6728 22.632 12.8277 22.7245C13.1394 22.9108 13.4689 23.0704 13.8127 23.2001C13.9818 23.2639 14.171 23.2208 14.3037 23.0981L15.1325 22.3321C15.2434 22.2296 15.3945 22.1843 15.5449 22.1985C15.6948 22.2126 15.8465 22.2196 16 22.2196C16.1533 22.2196 16.3052 22.2126 16.455 22.1985C16.6054 22.1844 16.7566 22.2297 16.8675 22.3322L17.6963 23.0982C17.829 23.2209 18.0181 23.2639 18.1872 23.2002C18.5313 23.0705 18.8606 22.9109 19.1725 22.7246C19.3276 22.632 19.4119 22.4573 19.3987 22.2771L19.3162 21.1517C19.3052 21.0013 19.3638 20.855 19.4686 20.7465C19.6793 20.5283 19.8696 20.2904 20.0363 20.0354C20.1188 19.9091 20.2484 19.8194 20.3975 19.7966L21.5137 19.6261C21.6924 19.5988 21.8439 19.4778 21.8995 19.3059C22.0104 18.9624 22.092 18.6058 22.1417 18.2389C22.1659 18.0599 22.0819 17.8852 21.9329 17.7832L21.0024 17.1458C20.878 17.0606 20.8002 16.9235 20.7808 16.7739C20.7411 16.4683 20.673 16.1716 20.5789 15.8865C20.5316 15.7432 20.5422 15.5859 20.6174 15.4551L21.1789 14.478C21.2691 14.3211 21.2688 14.1268 21.1687 13.976C20.9663 13.6711 20.7375 13.3849 20.4857 13.1213C20.3609 12.9907 20.172 12.9474 19.9993 13.0003L18.9219 13.3303C18.7774 13.3745 18.6215 13.3497 18.4923 13.2715C18.234 13.1151 17.9597 12.9824 17.6726 12.8762C17.5311 12.8238 17.4147 12.7175 17.3593 12.5772L16.9457 11.5295C16.8793 11.3612 16.7272 11.2404 16.547 11.2245C16.3668 11.2087 16.1844 11.2006 16 11.2006C15.8156 11.2006 15.6333 11.2087 15.4534 11.2245C15.2733 11.2403 15.1214 11.3611 15.0549 11.5292L14.6407 12.5773C14.5852 12.7176 14.4689 12.8238 14.3275 12.8761C14.0404 12.9823 13.766 13.1151 13.5077 13.2715ZM16 20.1536C17.5213 20.1536 18.7547 18.9201 18.7547 17.3988C18.7547 15.8775 17.5213 14.644 16 14.644C14.4786 14.644 13.2452 15.8775 13.2452 17.3988C13.2452 18.9201 14.4786 20.1536 16 20.1536Z"/><path d="M16 7.19738C16.0789 7.22518 16.1566 7.25641 16.2328 7.29098C16.5979 7.45529 16.9536 7.63957 17.2984 7.84299C18.4168 8.49688 19.5043 9.20205 20.5577 9.95622C23.0801 11.7346 23.2001 11.9759 25.9517 14.0243C26.0632 14.1357 26.1954 14.2241 26.341 14.2844C26.4866 14.3447 26.6426 14.3757 26.8002 14.3757C26.9577 14.3757 27.1137 14.3447 27.2593 14.2844C27.4049 14.2241 27.5372 14.1357 27.6486 14.0243C27.76 13.9129 27.8484 13.7806 27.9087 13.635C27.969 13.4895 28 13.3334 28 13.1759C28 13.0183 27.969 12.8623 27.9087 12.7167C27.8484 12.5711 27.76 12.4389 27.6486 12.3275C25.0001 10.1758 24.5225 9.81702 21.9425 7.99539C20.8257 7.19794 19.6733 6.45157 18.4888 5.75856C18.0076 5.48375 17.5528 5.24855 17.1964 5.09255C16.882 4.95454 16.4296 4.77574 16 4.77574C15.5704 4.77574 15.118 4.95454 14.8036 5.09255C14.4472 5.24855 13.9924 5.48375 13.5112 5.75856C12.3267 6.45157 11.1743 7.19794 10.0575 7.99539C7.47987 9.81702 6.99986 10.1758 4.35142 12.3275C4.24001 12.4389 4.15163 12.5711 4.09133 12.7167C4.03103 12.8623 4 13.0183 4 13.1759C4 13.3334 4.03103 13.4895 4.09133 13.635C4.15163 13.7806 4.24001 13.9129 4.35142 14.0243C4.46284 14.1357 4.59511 14.2241 4.74068 14.2844C4.88625 14.3447 5.04227 14.3757 5.19984 14.3757C5.3574 14.3757 5.51342 14.3447 5.65899 14.2844C5.80457 14.2241 5.93683 14.1357 6.04825 14.0243C8.80109 11.9759 8.92109 11.7346 11.4423 9.95622C12.4957 9.20205 13.5832 8.49688 14.7016 7.84299C15.1396 7.59218 15.4816 7.41458 15.7672 7.29098C15.8752 7.24298 15.9508 7.21418 16 7.19738Z"/><g></svg>