<svg xmlns="http://www.w3.org/2000/svg" width="32" height="32" fill="currentColor" fill-rule="evenodd" stroke-linejoin="round" stroke-miterlimit="1.414" aria-label="rss" clip-rule="evenodd" preserveAspectRatio="xMidYMid meet" viewBox="0 0 32 32"><g><path d="M10 24a2 2 0 1 0 0-4 2 2 0 0 0 0 4z"/><path fill-rule="evenodd" d="M8 9a1 1 0 0 1 1-1c8.284 0 15 6.716 15 15a1 1 0 1 1-2 0c0-7.18-5.82-13-13-13a1 1 0 0 1-1-1z" clip-rule="evenodd"/><path fill-rule="evenodd" d="M8 15a1 1 0 0 1 1-1 9 9 0 0 1 9 9 1 1 0 1 1-2 0 7 7 0 0 0-7-7 1 1 0 0 1-1-1z" clip-rule="evenodd"/></g></svg>