<svg width="32" height="32" fill="none" xmlns="http://www.w3.org/2000/svg"><g clip-path="url(#clip0)" fill="#000"><path d="M16 11c-.552 0-1-.392-1-.875v-5.25c0-.483.448-.875 1-.875s1 .392 1 .875v5.25c0 .483-.448.875-1 .875zM16 28c-.552 0-1-.392-1-.875v-5.25c0-.483.448-.875 1-.875s1 .392 1 .875v5.25c0 .483-.448.875-1 .875zM11 16c0 .552-.392 1-.875 1h-5.25C4.392 17 4 16.552 4 16s.392-1 .875-1h5.25c.483 0 .875.448.875 1zM28 16c0 .552-.392 1-.875 1h-5.25c-.483 0-.875-.448-.875-1s.392-1 .875-1h5.25c.483 0 .875.448.875 1zM11.464 11.464c-.39.39-.984.43-1.325.089L7.426 8.84c-.341-.342-.302-.936.089-1.326.39-.39.984-.43 1.326-.089l2.712 2.713c.341.341.302.935-.089 1.325zM24.485 24.465c-.39.39-.984.43-1.325.088l-2.713-2.712c-.341-.342-.302-.936.088-1.326s.985-.43 1.326-.089l2.713 2.713c.341.341.302.935-.089 1.326zM11.464 20.515c.39.39.43.984.089 1.326L8.84 24.553c-.342.341-.936.302-1.326-.088s-.43-.985-.089-1.326l2.713-2.713c.341-.341.935-.302 1.325.089zM24.485 7.515c.39.39.43.984.089 1.326l-2.713 2.712c-.341.341-.935.302-1.326-.089-.39-.39-.43-.984-.088-1.325l2.712-2.713c.342-.341.936-.302 1.326.089z"/></g><defs><clipPath id="clip0"><path fill="#fff" d="M0 0h32v32H0z"/></clipPath></defs></svg>