<svg xmlns="http://www.w3.org/2000/svg" width="32" height="32" fill="none" viewBox="0 0 32 32"><path fill="currentColor" fill-rule="evenodd" d="M18.3202 4.74913C19.5508 4.43589 20.8547 4.80968 21.7324 5.72731C22.2035 6.21986 22.5215 6.8386 22.6478 7.5084L24.0996 15.2093C25.0209 14.9651 25.9338 14.6785 26.8354 14.3496C27.2853 14.1854 27.7831 14.4171 27.9472 14.867C28.1114 15.3169 27.8797 15.8147 27.4298 15.9788C20.0489 18.6715 11.951 18.6723 4.5701 15.9788C4.12022 15.8146 3.8886 15.3168 4.05278 14.8669C4.21696 14.417 4.71476 14.1854 5.16464 14.3496C6.06515 14.6782 6.97693 14.9646 7.89707 15.2086L9.34874 7.5084C9.47501 6.8386 9.79302 6.21986 10.2642 5.72731C11.1419 4.80968 12.4458 4.43589 13.6764 4.74913L14.9865 5.08262C15.6504 5.25162 16.3461 5.25162 17.0101 5.08262L18.3202 4.74913ZM9.58672 15.6073C13.8155 16.4833 18.1809 16.4833 22.4099 15.6078L20.9436 7.8297C20.8795 7.48988 20.7182 7.17597 20.4791 6.92608C20.0338 6.46053 19.3723 6.27089 18.748 6.42981L17.4379 6.7633C16.4932 7.00375 15.5034 7.00375 14.5587 6.7633L13.2486 6.42981C12.6242 6.27089 11.9627 6.46053 11.5174 6.92608C11.2784 7.17597 11.1171 7.48988 11.053 7.82969L9.58672 15.6073ZM8.0518 22.4876C7.55194 22.8625 7.32378 23.3143 7.32378 23.7402C7.32378 24.1661 7.55194 24.6178 8.0518 24.9927C8.55192 25.3678 9.28258 25.6254 10.1265 25.6254C10.9704 25.6254 11.7011 25.3678 12.2012 24.9927C12.7011 24.6178 12.9292 24.1661 12.9292 23.7402C12.9292 23.3143 12.7011 22.8625 12.2012 22.4876C11.7011 22.1126 10.9704 21.8549 10.1265 21.8549C9.28258 21.8549 8.55192 22.1126 8.0518 22.4876ZM7.01124 21.1002C7.83934 20.4792 8.94362 20.1206 10.1265 20.1206C11.3094 20.1206 12.4137 20.4792 13.2418 21.1002C13.7187 21.458 14.1178 21.9162 14.3705 22.4495C15.4311 22.1258 16.5655 22.1258 17.626 22.4495C17.8788 21.9162 18.2778 21.458 18.7548 21.1002C19.5829 20.4792 20.6872 20.1206 21.8701 20.1206C23.0529 20.1206 24.1572 20.4792 24.9853 21.1002C25.8137 21.7215 26.407 22.646 26.407 23.7402C26.407 24.8344 25.8137 25.7588 24.9853 26.3801C24.1572 27.0012 23.0529 27.3597 21.8701 27.3597C20.6872 27.3597 19.5829 27.0012 18.7548 26.3801C18.0434 25.8466 17.5053 25.0894 17.3676 24.1932C16.4861 23.8569 15.5105 23.8569 14.629 24.1932C14.4912 25.0894 13.9532 25.8466 13.2418 26.3801C12.4137 27.0012 11.3094 27.3597 10.1265 27.3597C8.94362 27.3597 7.83934 27.0012 7.01124 26.3801C6.18286 25.7588 5.5895 24.8344 5.5895 23.7402C5.5895 22.646 6.18286 21.7215 7.01124 21.1002ZM19.7954 22.4876C19.2955 22.8625 19.0673 23.3143 19.0673 23.7402C19.0673 24.1661 19.2955 24.6178 19.7954 24.9927C20.2955 25.3678 21.0261 25.6254 21.8701 25.6254C22.714 25.6254 23.4446 25.3678 23.9448 24.9927C24.4446 24.6178 24.6728 24.1661 24.6728 23.7402C24.6728 23.3143 24.4446 22.8625 23.9448 22.4876C23.4446 22.1126 22.714 21.8549 21.8701 21.8549C21.0261 21.8549 20.2955 22.1126 19.7954 22.4876Z" clip-rule="evenodd"/></svg>