<svg xmlns="http://www.w3.org/2000/svg" width="32" height="32" viewBox="0 0 32 32"><path fill-rule="evenodd" d="M16 13.3338C17.4608 11.8937 18.9216 12.2537 19.6521 12.9738C22.5737 15.8538 16.8959 19.6563 16 19.6563C15.1039 19.6563 9.4263 15.8538 12.348 12.9738C13.0783 12.2537 14.5392 11.8937 16 13.3338Z" clip-rule="evenodd"/><path d="M9.96053 23.9483C13.0725 26.3238 17.4309 26.74 21.0331 24.6602C25.4114 22.1324 27.155 16.7937 25.3005 12.2397C25.0415 12.7828 24.8086 13.3481 24.5776 13.909L24.4985 14.1002C24.4379 14.2468 24.3773 14.3934 24.3165 14.538C24.119 15.0102 23.5827 15.215 23.125 14.9825C22.6804 14.7569 22.4842 14.2059 22.6768 13.7464L22.6775 13.7452C22.7619 13.5424 22.8474 13.3363 22.9325 13.1282L22.934 13.1245C23.4588 11.8481 24.0169 10.4908 24.8497 9.40302L24.8513 9.40154C25.0116 9.19605 25.2378 8.95429 25.5623 8.86732C25.8859 8.78062 26.2036 8.87667 26.4451 8.97448L26.4463 8.97519C27.7315 9.50979 28.8534 10.378 29.9454 11.2232C30.131 11.367 30.315 11.5092 30.4998 11.6502C30.8952 11.9512 31.0029 12.5269 30.7297 12.9448C30.4495 13.375 29.8824 13.4648 29.4755 13.1556C29.2947 13.0177 29.1145 12.8786 28.9356 12.7402L28.9341 12.7385C28.3382 12.2782 27.7456 11.8204 27.1271 11.4222C29.3961 16.9012 27.3081 23.3468 22.0331 26.3923C17.7113 28.8875 12.4825 28.3888 8.74828 25.5397C8.31012 25.2035 8.22728 24.576 8.56349 24.1379C8.89827 23.7016 9.52264 23.6171 9.96053 23.9483Z"/><path fill-rule="evenodd" d="M7.68347 17.5003C7.62267 17.645 7.56225 17.7911 7.50162 17.9378L7.42237 18.1293" clip-rule="evenodd"/><path d="M6.74357 19.7054C6.98503 19.191 7.20456 18.6581 7.42237 18.1293L7.50162 17.9378C7.56225 17.7911 7.62267 17.645 7.68347 17.5003C7.88098 17.028 8.41725 16.8233 8.87501 17.0557C9.31956 17.2813 9.51585 17.8323 9.32321 18.2918L9.32251 18.2931C9.23811 18.4958 9.15255 18.702 9.06752 18.9101L9.06603 18.9137C8.5412 20.1901 7.98313 21.5474 7.15032 22.6352L7.14865 22.6367C6.98837 22.8422 6.76224 23.0839 6.43769 23.1709C6.11411 23.2576 5.79642 23.1616 5.55487 23.0637L5.55365 23.063C4.2685 22.5284 3.14656 21.6602 2.0546 20.8151C1.86904 20.6712 1.68497 20.529 1.50018 20.388C1.10482 20.0871 0.99714 19.5113 1.27028 19.0934C1.55049 18.6632 2.11756 18.5734 2.52446 18.8826C2.70531 19.0205 2.88545 19.1596 3.06437 19.298L3.06585 19.2997C3.69776 19.7879 4.32597 20.2731 4.98519 20.6875C2.64241 15.185 4.72294 8.67352 10.0331 5.60769C14.3558 3.11197 19.5889 3.61433 23.3232 6.46496C23.7614 6.80117 23.844 7.42892 23.5078 7.86708C23.1716 8.30524 22.5439 8.38788 22.1057 8.05167C18.9938 5.67614 14.6354 5.25997 11.0331 7.33974C6.6724 9.8574 4.92526 15.1634 6.74357 19.7054Z"/></svg>