<svg width="32" height="32" viewBox="0 0 32 32" fill="none" xmlns="http://www.w3.org/2000/svg">
<g clip-path="url(#clip0_378_1)">
<path fill-rule="evenodd" clip-rule="evenodd" d="M16.0002 22.0048C15.4711 22.0048 14.9611 21.9225 14.4823 21.7702L11.9375 22.9909L9.06394 30.6537C8.87002 31.1708 9.13202 31.7472 9.64914 31.9411C10.1662 32.135 10.7426 31.873 10.9366 31.3559L12.0657 28.3449C13.2983 28.7724 14.6221 29.0047 16.0002 29.0047C17.3783 29.0047 18.7022 28.7724 19.9347 28.3448L21.0639 31.3559C21.2578 31.873 21.8342 32.135 22.3514 31.9411C22.8685 31.7472 23.1305 31.1708 22.9366 30.6537L19.9111 22.5855L17.4893 21.7793C17.019 21.9258 16.5188 22.0048 16.0002 22.0048ZM12.7684 26.471L13.8227 23.6594C14.5081 23.8836 15.24 24.0047 16.0002 24.0047C16.7604 24.0047 17.4924 23.8836 18.1777 23.6594L19.232 26.471C18.2183 26.817 17.1311 27.0047 16.0002 27.0047C14.8693 27.0047 13.7822 26.817 12.7684 26.471Z" />
<path fill-rule="evenodd" clip-rule="evenodd" d="M28 12C28 2 26 0 16 0C6 0 4 2 4 12C4 22 6 24 16 24C26 24 28 22 28 12ZM25.1831 5C25.5192 5.82938 25.7543 6.96832 25.8833 8.57353C25.9607 9.53658 26 10.6675 26 12H6C6 10.6675 6.03925 9.53665 6.11666 8.57355C6.24568 6.9684 6.48071 5.82934 6.8167 5H25.1831ZM11 16C11 16.8284 10.3284 17.5 9.5 17.5C8.67157 17.5 8 16.8284 8 16C8 15.1716 8.67157 14.5 9.5 14.5C10.3284 14.5 11 15.1716 11 16ZM24 16C24 16.8284 23.3284 17.5 22.5 17.5C21.6716 17.5 21 16.8284 21 16C21 15.1716 21.6716 14.5 22.5 14.5C23.3284 14.5 24 15.1716 24 16ZM16.0008 21.5C17.9558 21.5 19.6185 20.2531 19.9905 18.5909C20.176 17.762 17.597 17.5 16.0011 17.5C14.4053 17.5 11.8052 17.6678 12.0116 18.5909C12.3836 20.2531 14.0457 21.5 16.0008 21.5Z" />
</g>
<defs>
<clipPath id="clip0_378_1">
<rect width="32" height="32" fill="white"/>
</clipPath>
</defs>
</svg>
