<svg xmlns="http://www.w3.org/2000/svg" width="32" height="32" fill="currentColor" fill-rule="evenodd" stroke-linejoin="round" stroke-miterlimit="1.414" aria-label="wifi" clip-rule="evenodd" preserveAspectRatio="xMidYMid meet" viewBox="0 0 32 32"><g><path d="M17.314 23a2 2 0 1 0-2.828-2.828A2 2 0 0 0 17.314 23z"/><path fill-rule="evenodd" d="M5.293 13.808a1 1 0 0 1 0-1.415c5.858-5.857 15.355-5.857 21.213 0a1 1 0 0 1-1.414 1.415c-5.077-5.077-13.308-5.077-18.385 0a1 1 0 0 1-1.414 0z" clip-rule="evenodd"/><path fill-rule="evenodd" d="M9.536 18.05a1 1 0 0 1 0-1.414 9 9 0 0 1 12.728 0 1 1 0 0 1-1.415 1.414 7 7 0 0 0-9.9 0 1 1 0 0 1-1.413 0z" clip-rule="evenodd"/></g></svg>